<mxfile host="app.diagrams.net" modified="2021-09-05T10:51:20.885Z" agent="5.0 (Windows NT 10.0; Win64; x64) AppleWebKit/537.36 (KHTML, like Gecko) Chrome/92.0.4515.159 Safari/537.36" etag="cz4Vpk67g-DwGpusBzBu" version="14.5.10" type="github">
  <diagram id="GITQYz9u3WgyWc7mHUox" name="第 1 页">
    <mxGraphModel dx="1422" dy="762" grid="1" gridSize="10" guides="1" tooltips="1" connect="1" arrows="1" fold="1" page="1" pageScale="1" pageWidth="827" pageHeight="1169" math="0" shadow="0">
      <root>
        <mxCell id="0" />
        <mxCell id="1" parent="0" />
        <mxCell id="rFHmUv4RQVUjvAQvnO2f-1" value="应用层" style="rounded=0;whiteSpace=wrap;html=1;fillColor=#e51400;strokeColor=#B20000;fontColor=#ffffff;" vertex="1" parent="1">
          <mxGeometry x="40" y="170" width="90" height="80" as="geometry" />
        </mxCell>
        <mxCell id="rFHmUv4RQVUjvAQvnO2f-2" value="系统产品层" style="rounded=0;whiteSpace=wrap;html=1;fillColor=#e51400;strokeColor=#B20000;fontColor=#ffffff;" vertex="1" parent="1">
          <mxGeometry x="40" y="290" width="90" height="80" as="geometry" />
        </mxCell>
        <mxCell id="rFHmUv4RQVUjvAQvnO2f-3" value="模型和规则层" style="rounded=0;whiteSpace=wrap;html=1;fillColor=#e51400;strokeColor=#B20000;fontColor=#ffffff;" vertex="1" parent="1">
          <mxGeometry x="40" y="400" width="90" height="90" as="geometry" />
        </mxCell>
        <mxCell id="rFHmUv4RQVUjvAQvnO2f-4" value="数据层" style="rounded=0;whiteSpace=wrap;html=1;fillColor=#e51400;strokeColor=#B20000;fontColor=#ffffff;" vertex="1" parent="1">
          <mxGeometry x="40" y="525" width="90" height="95" as="geometry" />
        </mxCell>
        <mxCell id="rFHmUv4RQVUjvAQvnO2f-5" value="" style="rounded=0;whiteSpace=wrap;html=1;fillColor=#fff2cc;strokeColor=#d6b656;" vertex="1" parent="1">
          <mxGeometry x="150" y="170" width="1270" height="80" as="geometry" />
        </mxCell>
        <mxCell id="rFHmUv4RQVUjvAQvnO2f-6" value="" style="rounded=0;whiteSpace=wrap;html=1;fillColor=#fff2cc;strokeColor=#d6b656;" vertex="1" parent="1">
          <mxGeometry x="150" y="290" width="1270" height="80" as="geometry" />
        </mxCell>
        <mxCell id="rFHmUv4RQVUjvAQvnO2f-7" value="" style="rounded=0;whiteSpace=wrap;html=1;fillColor=#fff2cc;strokeColor=#d6b656;" vertex="1" parent="1">
          <mxGeometry x="150" y="400" width="1270" height="90" as="geometry" />
        </mxCell>
        <mxCell id="rFHmUv4RQVUjvAQvnO2f-8" value="" style="rounded=0;whiteSpace=wrap;html=1;fillColor=#fff2cc;strokeColor=#d6b656;" vertex="1" parent="1">
          <mxGeometry x="150" y="525" width="1270" height="95" as="geometry" />
        </mxCell>
        <mxCell id="rFHmUv4RQVUjvAQvnO2f-9" value="注册/登录检测" style="rounded=0;whiteSpace=wrap;html=1;fillColor=#a20025;strokeColor=#6F0000;fontColor=#ffffff;" vertex="1" parent="1">
          <mxGeometry x="160" y="180" width="90" height="60" as="geometry" />
        </mxCell>
        <mxCell id="rFHmUv4RQVUjvAQvnO2f-10" value="产品准入拦截" style="rounded=0;whiteSpace=wrap;html=1;fillColor=#a20025;strokeColor=#6F0000;fontColor=#ffffff;" vertex="1" parent="1">
          <mxGeometry x="270" y="180" width="80" height="60" as="geometry" />
        </mxCell>
        <mxCell id="rFHmUv4RQVUjvAQvnO2f-11" value="黑名单反欺诈检测" style="rounded=0;whiteSpace=wrap;html=1;fillColor=#a20025;strokeColor=#6F0000;fontColor=#ffffff;" vertex="1" parent="1">
          <mxGeometry x="360" y="180" width="100" height="60" as="geometry" />
        </mxCell>
        <mxCell id="rFHmUv4RQVUjvAQvnO2f-12" value="信用等级评估" style="rounded=0;whiteSpace=wrap;html=1;fillColor=#a20025;strokeColor=#6F0000;fontColor=#ffffff;" vertex="1" parent="1">
          <mxGeometry x="470" y="180" width="80" height="60" as="geometry" />
        </mxCell>
        <mxCell id="rFHmUv4RQVUjvAQvnO2f-13" value="额度利率测算" style="rounded=0;whiteSpace=wrap;html=1;fillColor=#a20025;strokeColor=#6F0000;fontColor=#ffffff;" vertex="1" parent="1">
          <mxGeometry x="560" y="180" width="80" height="60" as="geometry" />
        </mxCell>
        <mxCell id="rFHmUv4RQVUjvAQvnO2f-14" value="贷中风险监控" style="rounded=0;whiteSpace=wrap;html=1;fillColor=#a20025;strokeColor=#6F0000;fontColor=#ffffff;" vertex="1" parent="1">
          <mxGeometry x="650" y="180" width="80" height="60" as="geometry" />
        </mxCell>
        <mxCell id="rFHmUv4RQVUjvAQvnO2f-15" value="贷中风险预警" style="rounded=0;whiteSpace=wrap;html=1;fillColor=#a20025;strokeColor=#6F0000;fontColor=#ffffff;" vertex="1" parent="1">
          <mxGeometry x="740" y="180" width="80" height="60" as="geometry" />
        </mxCell>
        <mxCell id="rFHmUv4RQVUjvAQvnO2f-16" value="贷中风险策略分级" style="rounded=0;whiteSpace=wrap;html=1;fillColor=#a20025;strokeColor=#6F0000;fontColor=#ffffff;" vertex="1" parent="1">
          <mxGeometry x="827" y="180" width="80" height="60" as="geometry" />
        </mxCell>
        <mxCell id="rFHmUv4RQVUjvAQvnO2f-17" value="贷后催收自动分级" style="rounded=0;whiteSpace=wrap;html=1;fillColor=#a20025;strokeColor=#6F0000;fontColor=#ffffff;" vertex="1" parent="1">
          <mxGeometry x="920" y="180" width="80" height="60" as="geometry" />
        </mxCell>
        <mxCell id="rFHmUv4RQVUjvAQvnO2f-18" value="贷后自动催收" style="rounded=0;whiteSpace=wrap;html=1;fillColor=#a20025;strokeColor=#6F0000;fontColor=#ffffff;" vertex="1" parent="1">
          <mxGeometry x="1010" y="180" width="80" height="60" as="geometry" />
        </mxCell>
        <mxCell id="rFHmUv4RQVUjvAQvnO2f-19" value="风控运营数据分析" style="rounded=0;whiteSpace=wrap;html=1;fillColor=#a20025;strokeColor=#6F0000;fontColor=#ffffff;" vertex="1" parent="1">
          <mxGeometry x="1100" y="180" width="80" height="60" as="geometry" />
        </mxCell>
        <mxCell id="rFHmUv4RQVUjvAQvnO2f-20" value="......" style="rounded=0;whiteSpace=wrap;html=1;fillColor=#a20025;strokeColor=#6F0000;fontColor=#ffffff;" vertex="1" parent="1">
          <mxGeometry x="1201" y="180" width="80" height="60" as="geometry" />
        </mxCell>
      </root>
    </mxGraphModel>
  </diagram>
</mxfile>
